<svg width="16.933mm" height="13.53mm" version="1.1" viewBox="0 0 16.933 13.53" xmlns="http://www.w3.org/2000/svg"><g stroke="#000" stroke-width="1.1286"><path d="m3.1002 12.804c-1.0662-0.57138-1.9735-1.517-2.2282-2.7298-0.37807-1.5589-0.35115-3.1941-0.14474-4.775 0.21794-1.385 1.3643-2.3454 2.4124-3.1527 0.99774-0.67201 2.1033-1.2635 3.2877-1.4995 1.4267-0.17157 3.1344-0.16787 4.1589 1.0086 0.49941 0.52851 0.69296 1.2579 0.62285 1.969-0.0049 0.89714 0.30393 1.9078 1.18 2.3143 1.1439 0.65568 2.5308 0.55311 3.7214 1.0808 0.71594 0.73832-0.25546 1.6338-0.51061 2.365-0.33901 0.9332-1.2938 1.2376-2.1331 1.5496-1.6348 0.64834-3.1159 0.96575-5.2057 1.4103-2.7713 0.70208-3.8541 0.74811-5.1609 0.45927z" fill="#3776b5"/><path d="m15.017 9.4862c-0.68639 0.072308-1.4015-1.2364-1.3478-1.9785 0.20821-0.99747 0.84955-0.25193 1.1254-0.3994 0.25334-0.13431 0.51216-0.16631 0.77896-0.049324 0.60573 0.33968 0.11464 1.2867-0.13766 1.7538z"/><ellipse cx="9.3036" cy="6.395" rx="1.3481" ry=".80401"/></g><path d="m4.7779 4.07c0.69588 0.30432 0.60899 0.34026 0.59526 0.91296-0.011525 1.6842 0.64852 3.3558 0.60389 5.1012 0.015663 0.75633-0.066177 0.84773-0.39896 1.7646-0.74326 0.34202-1.4408 0.15864-2.278-0.005338-0.87348-0.61784-1.0189-0.75932-1.4184-2.0063-0.32425-1.8643-0.32036-3.2937-0.082846-4.9596 0.18961-0.96451 2.6232-0.96174 2.9789-0.80756" fill="#373c43" stroke="#373c43" stroke-width="1.1286"/></svg>
